<?xml version="1.0" encoding="UTF-8" standalone="no"?>
<svg width="96px" height="87px" viewBox="0 0 96 87" version="1.1" xmlns="http://www.w3.org/2000/svg" xmlns:xlink="http://www.w3.org/1999/xlink" xmlns:sketch="http://www.bohemiancoding.com/sketch/ns">
    <!-- Generator: Sketch 3.3.2 (12043) - http://www.bohemiancoding.com/sketch -->
    <title>rrremark</title>
    <desc>Created with Sketch.</desc>
    <defs></defs>
    <g id="Page-1" stroke="none" stroke-width="1" fill="none" fill-rule="evenodd" sketch:type="MSPage">
        <g id="Desktop-HD" sketch:type="MSArtboardGroup" transform="translate(-1.000000, -5.000000)" stroke="#4745D1">
            <g id="rrremark" sketch:type="MSLayerGroup" transform="translate(2.000000, 6.000000)">
                <path d="M31.8164642,0.012827415 L0.784249258,41.1974785 L0.35424321,61.5808385 L63.2055641,85.4679764 L93.7491864,43.9999986 L94.3960965,24.130733 L31.8164642,0.012827415 Z" id="Path-15" sketch:type="MSShapeGroup"></path>
                <path d="M34.7507021,1.74358499 L3.64536595,42.2547165 L3.39375733,62.712499" id="Path-14" sketch:type="MSShapeGroup"></path>
                <path d="M91.9824276,22.4838299 L60.7972619,64.2769295 L60.5597859,84.3765258" id="Path-15" sketch:type="MSShapeGroup"></path>
                <path d="M63.4980487,84.2960255 L64.0617478,64.8278545 L94.4316508,24.2877087" id="Path-16" sketch:type="MSShapeGroup"></path>
                <path d="M64.3307146,65.1449164 L1.03715453,41.5872344" id="Path-17" sketch:type="MSShapeGroup"></path>
                <path d="M5.44589049,40.1066987 L62.6077519,61.49143" id="Path-18" sketch:type="MSShapeGroup"></path>
                <path d="M89.4411052,25.5253234 L33.5418551,3.92380286" id="Path-19" sketch:type="MSShapeGroup"></path>
                <path d="M17.1305166,44.0968329 L33.099774,23.3035918 L77.8733991,40.5943967" id="Path-20" sketch:type="MSShapeGroup"></path>
                <path d="M33.2131454,23.6135182 L33.0803198,4.1149912" id="Path-21" sketch:type="MSShapeGroup"></path>
                <rect id="Rectangle-4" sketch:type="MSShapeGroup" x="33" y="28" width="3" height="3" rx="40"></rect>
                <rect id="Rectangle-4-Copy" sketch:type="MSShapeGroup" x="70" y="41" width="3" height="3" rx="40"></rect>
                <rect id="Rectangle-4-Copy-2" sketch:type="MSShapeGroup" x="60" y="55" width="3" height="3" rx="40"></rect>
            </g>
        </g>
    </g>
</svg>